<svg version="1.1" id="Layer_1" xmlns="http://www.w3.org/2000/svg" xmlns:xlink="http://www.w3.org/1999/xlink" x="0px" y="0px"
	 width="100%" viewBox="0 0 496 496" enable-background="new 0 0 496 496" xml:space="preserve">
<path fill="#000000" opacity="1.000000" stroke="none" 
	d="
M354.753235,192.297821 
	C339.450104,184.517151 324.081665,178.308243 306.803223,179.382019 
	C299.469452,179.837799 292.239319,180.955597 285.601807,184.413132 
	C273.316406,190.812668 271.652496,203.296295 282.044037,212.429840 
	C290.543457,219.900299 300.940948,224.184280 311.015167,228.977631 
	C313.052368,229.946945 315.412292,230.419022 316.969818,232.413040 
	C315.782990,233.981705 314.177734,233.331543 312.814972,233.337097 
	C302.649902,233.378586 292.484558,233.344391 282.319275,233.327484 
	C271.309296,233.309189 259.285706,221.594025 258.662231,210.433228 
	C258.028046,199.080780 263.091187,190.757202 272.514648,185.121780 
	C288.138245,175.778564 305.512939,174.110794 323.168640,174.967560 
	C336.461243,175.612579 349.590851,177.772980 362.472809,181.353790 
	C366.257599,182.405869 367.993378,183.843185 366.664825,187.971512 
	C365.729492,190.878052 366.872986,194.333939 364.454559,197.080688 
	C360.874359,196.350082 358.251343,193.831650 354.753235,192.297821 
z"/>
<path fill="#000000" opacity="1.000000" stroke="none" 
	d="
M371.102905,298.880615 
	C363.053802,312.071106 350.387665,317.270325 336.547607,320.087189 
	C311.329834,325.219788 286.957306,320.577942 262.943237,312.854614 
	C260.732544,312.143616 259.752502,310.824585 260.265076,308.322937 
	C260.829254,305.569397 260.954834,302.728516 261.372711,299.940857 
	C261.488434,299.169067 261.964294,298.451294 262.482941,297.211548 
	C266.745178,299.544586 270.757111,301.811707 274.832428,303.958466 
	C289.370667,311.616638 304.320770,317.974152 321.198608,317.644897 
	C328.085114,317.510559 334.723694,316.031799 340.937561,312.954102 
	C357.571472,304.715302 361.175110,287.178864 349.168854,273.003113 
	C348.328308,272.010681 347.537476,270.976166 346.425171,269.589203 
	C349.545197,267.976349 352.542023,268.862305 355.380615,268.692627 
	C357.704071,268.553741 360.042694,268.669037 362.374573,268.669952 
	C372.916016,268.674072 374.483795,270.054260 375.200317,280.728271 
	C375.621460,287.002472 374.070007,292.936768 371.102905,298.880615 
z"/>
<path fill="#000000" opacity="1.000000" stroke="none" 
	d="
M207.296967,271.406311 
	C208.018158,269.458527 208.890015,268.399841 210.827026,269.150085 
	C212.047699,270.807098 210.950012,272.309418 210.432434,273.818939 
	C205.793320,287.349121 201.020050,300.834808 196.550674,314.420563 
	C195.395493,317.932037 193.853699,319.458771 189.922806,319.462708 
	C173.853668,319.478729 173.880157,319.605255 168.626694,304.226807 
	C165.293900,294.470734 161.866318,284.747009 158.486572,275.006958 
	C157.893509,273.297821 157.052582,271.639893 157.377762,268.769470 
	C163.489410,268.769470 169.700714,268.647278 175.903183,268.828186 
	C178.466675,268.902954 178.602997,271.478455 179.227829,273.274841 
	C183.269745,284.895264 187.235199,296.542297 191.247971,308.172943 
	C191.658554,309.362976 192.216095,310.502319 193.193924,312.826050 
	C198.099243,298.388611 202.622238,285.076447 207.296967,271.406311 
z"/>
<path fill="#000000" opacity="1.000000" stroke="none" 
	d="
M135.848389,208.967896 
	C132.416092,198.854095 129.095490,189.119476 125.550156,178.726044 
	C132.408142,177.182892 138.781128,177.837372 145.117447,178.193359 
	C146.358032,178.263062 146.901093,179.523529 147.298279,180.679337 
	C152.974365,197.196320 158.673386,213.705444 164.327271,230.230011 
	C164.578293,230.963669 164.451279,231.826675 164.539719,233.273087 
	C158.371170,233.273087 152.420822,233.302261 146.470978,233.259750 
	C143.837967,233.240936 143.423645,231.018524 142.779221,229.176422 
	C140.471191,222.578888 138.227859,215.958694 135.848389,208.967896 
z"/>
<path fill="#000000" opacity="1.000000" stroke="none" 
	d="
M221.491989,229.527679 
	C226.020020,213.870926 228.570251,198.349945 227.784424,182.400925 
	C227.627869,179.223694 228.844299,177.662552 232.076660,177.862625 
	C235.346100,178.064987 238.694595,177.300766 241.728775,178.414841 
	C242.816162,180.172455 241.971329,181.525620 241.495880,182.919861 
	C236.235001,198.347366 230.980453,213.777039 225.718674,229.204239 
	C225.450745,229.989761 225.207047,230.797577 224.820999,231.525482 
	C224.232910,232.634384 223.320267,233.450394 221.993729,232.911133 
	C220.437256,232.278381 221.167999,231.008331 221.491989,229.527679 
z"/>
<path fill="#000000" opacity="1.000000" stroke="none" 
	d="
M324.578918,250.235687 
	C322.185272,250.682465 319.986206,249.905441 317.377655,251.187012 
	C319.838318,253.302872 322.153015,252.091309 324.251923,252.249557 
	C325.804474,252.366592 327.994232,251.881378 327.960449,254.394897 
	C327.931763,256.530548 325.991119,256.201965 324.553894,256.345398 
	C324.223511,256.378387 323.887573,256.369751 323.554626,256.361389 
	C309.785706,256.016174 312.476593,258.652740 312.081085,244.169006 
	C312.049805,243.023178 311.930664,241.452988 313.260468,241.167389 
	C317.683716,240.217438 322.179810,240.389465 326.632111,241.064377 
	C327.441986,241.187149 327.915924,242.192734 327.790100,243.066818 
	C327.613831,244.290924 326.543549,244.535477 325.533813,244.600723 
	C322.925964,244.769211 320.271240,243.832016 317.158051,245.035812 
	C319.169525,246.599106 321.238403,245.815552 323.012573,246.233856 
	C325.236267,246.758102 327.085449,247.449707 324.578918,250.235687 
z"/>
<path fill="#000000" opacity="1.000000" stroke="none" 
	d="
M207.083344,244.621552 
	C204.940659,244.584808 203.155014,244.584808 200.481033,244.584808 
	C203.035233,247.117310 205.743042,246.396255 207.917526,247.178970 
	C210.227142,248.010361 212.402771,248.860229 212.235306,251.843765 
	C212.076599,254.671021 210.081879,255.676941 207.658813,256.357178 
	C204.482407,257.248871 201.367889,256.546783 198.252335,256.189789 
	C196.563950,255.996307 194.703323,255.275665 195.105911,253.119858 
	C195.592102,250.516342 197.534332,251.523911 199.053421,252.081131 
	C201.487961,252.974228 203.903046,252.744110 207.035614,252.399323 
	C205.044647,249.732346 202.427963,250.627472 200.458755,249.897079 
	C198.042221,249.000793 195.551559,248.235214 195.715897,244.997238 
	C195.877823,241.806976 198.312439,241.171951 200.866150,240.551041 
	C203.404297,239.933914 205.838699,240.520004 208.300522,240.791962 
	C209.709442,240.947617 211.050949,241.724030 210.896576,243.301544 
	C210.668274,245.634933 208.890396,244.932053 207.083344,244.621552 
z"/>
<path fill="#000000" opacity="1.000000" stroke="none" 
	d="
M341.661224,250.592743 
	C337.566010,249.812866 332.689301,250.489716 332.624939,244.643600 
	C332.589081,241.388428 336.876648,239.873169 343.030090,240.561554 
	C345.445587,240.831772 348.184143,240.644791 347.755066,244.706085 
	C344.541687,245.186066 341.440918,243.721252 338.035583,244.904282 
	C339.480804,246.793945 341.554199,246.420044 343.283417,246.832687 
	C346.063416,247.496002 349.236877,247.961548 349.175873,251.702072 
	C349.111145,255.670395 345.848480,256.091888 342.819489,256.629089 
	C339.953949,257.137299 337.201508,256.426483 334.454590,255.927795 
	C332.957306,255.655991 331.540375,254.658371 332.093658,252.767548 
	C332.642822,250.890900 334.148926,251.497284 335.386566,251.944061 
	C338.078979,252.915909 340.733551,252.882080 344.359741,252.170517 
	C343.011871,251.333893 342.495972,251.013672 341.661224,250.592743 
z"/>
<path fill="#000000" opacity="1.000000" stroke="none" 
	d="
M235.019623,246.510284 
	C235.603973,250.753128 234.309937,253.825256 230.815231,255.606720 
	C226.828003,257.639252 222.751495,257.469269 219.028107,254.952591 
	C216.528809,253.263290 215.421936,250.665268 215.735733,247.616638 
	C216.051178,244.552094 217.686707,242.438004 220.555344,241.240982 
	C226.237869,238.869751 231.677582,240.699875 235.019623,246.510284 
M223.292969,244.667023 
	C221.081818,245.684448 219.889374,247.332062 220.605927,249.784882 
	C221.098221,251.469971 222.366074,252.529129 224.215637,252.661621 
	C227.310242,252.883270 230.315384,252.090225 230.376602,248.628662 
	C230.445343,244.742325 227.296463,244.108871 223.292969,244.667023 
z"/>
<path fill="#000000" opacity="1.000000" stroke="none" 
	d="
M181.344116,256.624146 
	C178.341553,255.959152 174.522919,256.989441 174.991852,251.870346 
	C178.610870,251.355316 182.108063,253.908066 185.939148,252.030106 
	C184.756149,250.023087 182.761093,250.584045 181.176682,250.152237 
	C178.307236,249.370209 174.714157,248.831863 175.061630,244.909332 
	C175.388962,241.214050 178.857147,240.643387 181.867645,240.371307 
	C183.816086,240.195221 185.842163,240.449371 187.787766,240.779724 
	C190.178741,241.185745 190.564285,242.705688 189.652634,244.807083 
	C186.755051,245.223694 183.982651,243.701462 180.932098,244.920197 
	C182.109039,246.960129 184.098740,246.446350 185.697067,246.773239 
	C188.745056,247.396561 192.014496,248.236404 191.884903,251.986557 
	C191.764603,255.468048 188.612289,256.175446 185.683380,256.498627 
	C184.379074,256.642548 183.058670,256.640625 181.344116,256.624146 
z"/>
<path fill="#000000" opacity="1.000000" stroke="none" 
	d="
M275.944275,241.485413 
	C279.887878,239.781830 282.114014,240.984833 283.451660,244.697998 
	C284.779358,248.383636 287.445435,251.503250 288.463501,255.470963 
	C284.241241,258.312988 282.372498,252.832138 278.598511,252.999466 
	C275.056915,253.156479 273.247772,258.273804 268.691864,255.233200 
	C270.997894,250.780991 273.329895,246.278625 275.944275,241.485413 
z"/>
<path fill="#000000" opacity="1.000000" stroke="none" 
	d="
M160.404938,253.347183 
	C157.325912,253.423172 156.099457,258.080872 152.085266,255.284271 
	C154.260193,250.904007 156.154770,246.169861 158.879135,241.974579 
	C160.321701,239.753113 163.601730,239.661194 165.155563,242.170944 
	C167.742218,246.348907 169.693115,250.920456 171.988007,255.477783 
	C167.274460,258.082764 164.962692,251.183350 160.404938,253.347183 
z"/>
<path fill="#000000" opacity="1.000000" stroke="none" 
	d="
M248.933151,240.269928 
	C254.888733,241.072647 254.888733,241.072647 254.760635,244.936905 
	C252.813263,244.756531 250.871033,244.376007 248.945419,244.446884 
	C246.287323,244.544708 243.624405,245.586914 243.595993,248.544739 
	C243.567276,251.534256 246.177597,252.615463 248.886948,252.597168 
	C251.009888,252.582855 253.130005,252.152817 255.486725,251.880264 
	C256.676575,253.712234 256.445435,255.405823 254.256393,256.034241 
	C250.182770,257.203644 246.017731,257.428406 242.248367,254.946548 
	C237.236435,251.646545 237.580063,244.796875 242.828400,241.820770 
	C244.608582,240.811325 246.550629,240.443314 248.933151,240.269928 
z"/>
<path fill="#000000" opacity="1.000000" stroke="none" 
	d="
M79.300766,252.844879 
	C74.748764,252.068405 70.417038,253.020386 66.419640,251.673737 
	C66.448380,251.229553 66.477119,250.785370 66.505859,250.341187 
	C80.098137,250.341187 93.690414,250.341187 107.282692,250.341187 
	C107.325920,250.767120 107.369148,251.193069 107.412369,251.619003 
	C103.008865,253.000580 98.347992,252.768539 93.760262,252.859299 
	C89.098663,252.951523 84.433571,252.868073 79.300766,252.844879 
z"/>
<path fill="#000000" opacity="1.000000" stroke="none" 
	d="
M300.273010,256.173309 
	C296.078888,255.969971 297.626587,253.074814 297.729340,251.334625 
	C297.997040,246.800980 297.515015,243.259460 291.450104,244.330078 
	C290.965057,241.605927 292.199371,240.468445 294.316986,240.737534 
	C298.911163,241.321396 304.140015,238.694962 308.690552,242.971542 
	C302.600555,245.712250 302.600586,245.712250 302.156982,252.778671 
	C302.075958,254.069016 302.326141,255.505203 300.273010,256.173309 
z"/>
<path fill="#000000" opacity="1.000000" stroke="none" 
	d="
M425.971588,249.653503 
	C430.141663,249.944382 433.950867,248.981918 437.848083,250.468826 
	C435.208710,252.856140 401.952881,253.272293 396.466644,250.735840 
	C400.992004,249.072388 405.815063,249.816589 410.510986,249.689178 
	C415.496674,249.553925 420.488770,249.655869 425.971588,249.653503 
z"/>
<path fill="#000000" opacity="1.000000" stroke="none" 
	d="
M260.639252,252.263596 
	C260.662537,249.187164 260.664673,246.538193 260.703613,243.889755 
	C260.726898,242.305023 260.939728,240.817261 263.082336,240.921234 
	C264.868195,241.007889 265.165161,242.290451 265.182068,243.690903 
	C265.220001,246.835800 265.220093,249.981506 265.199249,253.126633 
	C265.188721,254.716278 264.895966,256.177399 262.843933,256.198242 
	C260.249939,256.224609 260.630432,254.328064 260.639252,252.263596 
z"/>
</svg>